<svg xmlns="http://www.w3.org/2000/svg" viewBox="0 0 400 80" fill="#000000">
  <!-- Brain network icon -->
  <g transform="translate(0, 5) scale(0.85)">
    <!-- Brain outline formed by connected nodes -->
    <!-- Left hemisphere nodes and connections -->
    <circle cx="35" cy="28" r="3"/>
    <circle cx="22" cy="35" r="2.5"/>
    <circle cx="28" cy="18" r="2"/>
    <circle cx="15" cy="25" r="2"/>
    <circle cx="18" cy="45" r="2.5"/>
    <circle cx="30" cy="50" r="2"/>
    <circle cx="25" cy="58" r="2.5"/>
    <circle cx="12" cy="38" r="1.8"/>
    <circle cx="20" cy="15" r="1.8"/>
    <circle cx="10" cy="30" r="1.5"/>
    <circle cx="32" cy="38" r="2.5"/>
    <circle cx="38" cy="45" r="2"/>
    <circle cx="15" cy="52" r="1.8"/>
    <circle cx="28" cy="65" r="2"/>
    <circle cx="35" cy="60" r="1.8"/>
    <!-- Right hemisphere nodes -->
    <circle cx="50" cy="25" r="2.5"/>
    <circle cx="58" cy="20" r="2"/>
    <circle cx="62" cy="30" r="2.5"/>
    <circle cx="55" cy="38" r="3"/>
    <circle cx="65" cy="22" r="1.8"/>
    <circle cx="68" cy="35" r="2"/>
    <circle cx="60" cy="45" r="2.5"/>
    <circle cx="52" cy="50" r="2"/>
    <circle cx="65" cy="42" r="1.8"/>
    <circle cx="58" cy="55" r="2"/>
    <circle cx="48" cy="58" r="2.5"/>
    <circle cx="55" cy="62" r="1.8"/>
    <circle cx="42" cy="35" r="2"/>
    <!-- Central/stem -->
    <circle cx="40" cy="68" r="2"/>
    <circle cx="38" cy="75" r="1.5"/>
    <circle cx="42" cy="78" r="1.5"/>
    <!-- Connections (lines between nodes) -->
    <g stroke="#000000" stroke-width="0.8" fill="none" opacity="0.6">
      <line x1="35" y1="28" x2="22" y2="35"/>
      <line x1="35" y1="28" x2="28" y2="18"/>
      <line x1="35" y1="28" x2="50" y2="25"/>
      <line x1="35" y1="28" x2="32" y2="38"/>
      <line x1="22" y1="35" x2="15" y2="25"/>
      <line x1="22" y1="35" x2="18" y2="45"/>
      <line x1="22" y1="35" x2="12" y2="38"/>
      <line x1="22" y1="35" x2="32" y2="38"/>
      <line x1="28" y1="18" x2="20" y2="15"/>
      <line x1="28" y1="18" x2="50" y2="25"/>
      <line x1="15" y1="25" x2="10" y2="30"/>
      <line x1="15" y1="25" x2="20" y2="15"/>
      <line x1="18" y1="45" x2="30" y2="50"/>
      <line x1="18" y1="45" x2="15" y2="52"/>
      <line x1="18" y1="45" x2="12" y2="38"/>
      <line x1="30" y1="50" x2="25" y2="58"/>
      <line x1="30" y1="50" x2="38" y2="45"/>
      <line x1="25" y1="58" x2="28" y2="65"/>
      <line x1="25" y1="58" x2="15" y2="52"/>
      <line x1="32" y1="38" x2="42" y2="35"/>
      <line x1="32" y1="38" x2="38" y2="45"/>
      <line x1="38" y1="45" x2="52" y2="50"/>
      <line x1="50" y1="25" x2="58" y2="20"/>
      <line x1="50" y1="25" x2="62" y2="30"/>
      <line x1="50" y1="25" x2="55" y2="38"/>
      <line x1="50" y1="25" x2="42" y2="35"/>
      <line x1="58" y1="20" x2="65" y2="22"/>
      <line x1="62" y1="30" x2="68" y2="35"/>
      <line x1="62" y1="30" x2="65" y2="22"/>
      <line x1="62" y1="30" x2="55" y2="38"/>
      <line x1="55" y1="38" x2="60" y2="45"/>
      <line x1="55" y1="38" x2="42" y2="35"/>
      <line x1="55" y1="38" x2="68" y2="35"/>
      <line x1="68" y1="35" x2="65" y2="42"/>
      <line x1="60" y1="45" x2="65" y2="42"/>
      <line x1="60" y1="45" x2="52" y2="50"/>
      <line x1="60" y1="45" x2="58" y2="55"/>
      <line x1="52" y1="50" x2="48" y2="58"/>
      <line x1="58" y1="55" x2="55" y2="62"/>
      <line x1="48" y1="58" x2="55" y2="62"/>
      <line x1="48" y1="58" x2="40" y2="68"/>
      <line x1="28" y1="65" x2="40" y2="68"/>
      <line x1="35" y1="60" x2="40" y2="68"/>
      <line x1="35" y1="60" x2="28" y2="65"/>
      <line x1="35" y1="60" x2="48" y2="58"/>
      <line x1="40" y1="68" x2="38" y2="75"/>
      <line x1="40" y1="68" x2="42" y2="78"/>
      <line x1="38" y1="75" x2="42" y2="78"/>
      <line x1="10" y1="30" x2="12" y2="38"/>
    </g>
  </g>
  <!-- Wordmark -->
  <text x="90" y="40" font-family="'Noto Serif Display', Times, serif" font-size="32" font-weight="600" letter-spacing="3">ARIANNA BURATTI</text>
  <text x="90" y="62" font-family="'Mona Sans', Helvetica, Arial, sans-serif" font-size="13" font-weight="400" letter-spacing="6">PSYCHOLOGIST</text>
</svg>
