<svg xmlns="http://www.w3.org/2000/svg" viewBox="138 -2 97 135" width="97" height="135" preserveAspectRatio="xMidYMid meet"><defs><clipPath id="a"><path d="M 178 30 L 182 30 L 182 91.886719 L 178 91.886719 Z"/></clipPath><clipPath id="b"><path d="M 176 0.078125 L 201 0.078125 L 201 35 L 176 35 Z"/></clipPath><clipPath id="c"><path d="M 182 24 L 232.074219 24 L 232.074219 70 L 182 70 Z"/></clipPath><clipPath id="d"><path d="M 141.332031 46 L 175 46 L 175 81 L 141.332031 81 Z"/></clipPath></defs><g transform="translate(1, 4)"><g clip-path="url(#a)"><path fill="#000000" d="M 179.160156 91.847656 L 178.207031 91.632812 C 179.976562 83.699219 180.796875 74.988281 180.796875 64.195312 C 180.796875 56.394531 180.367188 48.5 179.9375 40.859375 C 179.761719 37.535156 179.570312 34.109375 179.433594 30.804688 L 180.40625 30.765625 C 180.542969 34.070312 180.738281 37.496094 180.910156 40.820312 C 181.339844 48.480469 181.769531 56.375 181.769531 64.214844 C 181.769531 75.066406 180.929688 83.855469 179.160156 91.847656 Z"/></g><g clip-path="url(#b)"><path fill="#000000" d="M 179.976562 34.148438 C 179.648438 34.148438 179.355469 33.972656 179.179688 33.683594 C 177.484375 30.765625 176.628906 27.65625 176.628906 24.445312 C 176.628906 15.8125 182.429688 9.726562 187.316406 6.148438 C 192.691406 2.160156 198.375 0.117188 199.621094 0.117188 C 200.304688 0.117188 200.671875 0.839844 200.671875 2.082031 C 200.671875 8.089844 194.714844 17.152344 191.152344 22.015625 C 188.914062 25.085938 186.460938 28.101562 184.261719 30.492188 C 180.929688 34.148438 180.210938 34.148438 179.976562 34.148438 Z M 199.5625 1.089844 C 198.550781 1.1875 193.195312 2.996094 187.902344 6.90625 C 183.191406 10.367188 177.601562 16.21875 177.601562 24.425781 C 177.601562 27.441406 178.421875 30.378906 179.996094 33.136719 C 180.949219 32.75 185.605469 28.003906 190.570312 21.179688 C 193.976562 16.472656 199.71875 7.742188 199.71875 2.0625 C 199.699219 1.578125 199.621094 1.226562 199.5625 1.089844 Z"/></g><path fill="#000000" d="M 176.863281 26.488281 C 176.414062 26.136719 175.96875 25.789062 175.519531 25.4375 C 169.738281 20.964844 163.195312 15.890625 160.859375 9.003906 L 160.664062 8.421875 L 161.269531 8.363281 C 161.386719 8.34375 161.519531 8.34375 161.636719 8.34375 C 175.578125 8.34375 177.097656 15.792969 177.757812 18.960938 C 177.855469 19.46875 177.953125 19.914062 178.050781 20.128906 L 177.175781 20.539062 C 177.019531 20.207031 176.921875 19.738281 176.804688 19.15625 C 176.160156 15.988281 174.820312 9.433594 161.988281 9.316406 C 164.402344 15.617188 170.59375 20.421875 176.082031 24.660156 C 176.550781 25.011719 177 25.359375 177.445312 25.710938 Z"/><path fill="#000000" d="M 181.320312 71.097656 L 180.757812 70.320312 C 184.726562 67.441406 186.617188 65.339844 190.042969 61.570312 C 193.136719 58.144531 197.402344 53.441406 205.480469 45.679688 L 206.164062 46.382812 C 198.101562 54.121094 193.878906 58.808594 190.78125 62.210938 C 187.394531 65.925781 185.371094 68.160156 181.320312 71.097656 Z"/><g clip-path="url(#c)"><path fill="#000000" d="M 191.074219 69.035156 C 189.050781 69.035156 187.003906 68.238281 185.429688 66.839844 C 184.144531 65.710938 182.625 63.667969 182.625 60.402344 C 182.625 59.742188 182.664062 59.117188 182.703125 58.515625 C 182.742188 57.914062 182.78125 57.269531 182.78125 56.609375 C 182.78125 56.355469 182.78125 56.085938 182.78125 55.832031 C 182.78125 55.578125 182.78125 55.328125 182.78125 55.074219 C 182.78125 48.539062 188.5625 40.78125 198.238281 34.34375 C 207.71875 28.042969 218.816406 24.289062 227.929688 24.289062 C 231.375 24.289062 232.09375 25.632812 232.09375 26.742188 C 232.09375 26.816406 232.09375 26.894531 232.074219 26.972656 C 231.882812 29.132812 229.972656 30.320312 228.105469 31.464844 C 226.996094 32.148438 225.847656 32.867188 225.125 33.742188 C 224.132812 34.945312 223.335938 36.425781 222.554688 37.863281 C 222.089844 38.71875 221.621094 39.59375 221.09375 40.410156 C 219.109375 43.542969 213.386719 50.738281 207.585938 56.863281 C 202.308594 62.425781 195.183594 69.035156 191.074219 69.035156 Z M 227.890625 25.261719 C 219.089844 25.261719 207.933594 29.054688 198.746094 35.160156 C 189.34375 41.421875 183.714844 48.851562 183.714844 55.074219 C 183.714844 55.328125 183.714844 55.578125 183.714844 55.832031 C 183.714844 56.085938 183.714844 56.355469 183.714844 56.609375 C 183.714844 57.289062 183.675781 57.953125 183.636719 58.574219 C 183.597656 59.195312 183.578125 59.78125 183.578125 60.421875 C 183.578125 65.710938 187.960938 68.082031 191.054688 68.082031 C 198.042969 68.082031 216.675781 45.546875 220.21875 39.90625 C 220.726562 39.128906 221.191406 38.253906 221.640625 37.417969 C 222.4375 35.9375 223.257812 34.421875 224.328125 33.136719 C 225.164062 32.128906 226.371094 31.367188 227.558594 30.648438 C 229.292969 29.578125 230.925781 28.570312 231.082031 26.894531 C 231.082031 26.835938 231.082031 26.800781 231.082031 26.742188 C 231.101562 25.769531 230.011719 25.261719 227.890625 25.261719 Z"/></g><path fill="#000000" d="M 180.699219 53.519531 C 179.023438 51.632812 177.640625 49.53125 176.296875 47.488281 C 174.855469 45.292969 173.359375 43.015625 171.507812 41.074219 L 172.210938 40.410156 C 174.117188 42.433594 175.636719 44.746094 177.097656 46.964844 C 178.421875 48.96875 179.78125 51.046875 181.417969 52.875 Z"/><path fill="#000000" d="M 173.535156 44.902344 C 172.851562 44.902344 171.800781 44.222656 167.808594 41.695312 C 164.382812 39.515625 158.621094 35.839844 149.488281 30.359375 L 148.828125 29.949219 L 149.488281 29.519531 C 152.3125 27.710938 156.089844 25.613281 160.292969 25.613281 C 164.558594 25.613281 168.78125 27.789062 172.210938 31.71875 C 174.875 34.8125 176.765625 38.679688 176.765625 41.167969 C 176.765625 42.628906 176.199219 43.738281 175.089844 44.457031 C 174.585938 44.746094 174.058594 44.902344 173.535156 44.902344 Z M 150.65625 29.910156 C 159.417969 35.199219 164.988281 38.71875 168.335938 40.859375 C 171.332031 42.765625 173.144531 43.910156 173.535156 43.910156 C 173.882812 43.910156 174.195312 43.8125 174.527344 43.601562 C 175.34375 43.074219 175.753906 42.277344 175.753906 41.148438 C 175.753906 37.398438 169.660156 26.566406 160.253906 26.566406 C 156.652344 26.585938 153.285156 28.277344 150.65625 29.910156 Z"/><path fill="#000000" d="M 178.769531 89.027344 C 178.226562 88.269531 177.542969 87.609375 176.804688 86.925781 C 176.179688 86.34375 175.519531 85.722656 174.972656 85.019531 C 174 83.777344 173.628906 83.097656 173.222656 82.355469 C 172.578125 81.152344 171.839844 79.789062 167.75 75.101562 L 168.492188 74.460938 C 172.636719 79.207031 173.398438 80.625 174.078125 81.890625 C 174.46875 82.609375 174.800781 83.230469 175.734375 84.417969 C 176.238281 85.058594 176.84375 85.625 177.464844 86.207031 C 178.1875 86.886719 178.945312 87.609375 179.550781 88.445312 Z"/><g clip-path="url(#d)"><path fill="#000000" d="M 170.671875 80.898438 C 169.09375 80.898438 166.640625 79.226562 163.175781 75.765625 C 160.507812 73.101562 157.257812 69.40625 153.519531 64.757812 C 150.191406 60.617188 147.074219 56.511719 145.070312 53.769531 C 143.921875 52.214844 142.988281 50.933594 142.421875 50.152344 C 141.332031 48.695312 141.332031 48.695312 141.332031 48.519531 L 141.332031 48.480469 C 141.390625 47.390625 142.402344 46.828125 144.332031 46.828125 C 155.3125 46.828125 162.574219 53.070312 166.738281 58.320312 C 171.957031 64.875 174.273438 72.246094 174.273438 76.640625 C 174.273438 80.101562 172.421875 80.859375 170.886719 80.898438 C 170.808594 80.898438 170.75 80.898438 170.671875 80.898438 Z M 142.324219 48.402344 C 145.421875 52.875 165.277344 79.925781 170.652344 79.925781 C 170.710938 79.925781 170.789062 79.925781 170.847656 79.925781 C 171.898438 79.90625 173.300781 79.539062 173.300781 76.640625 C 173.300781 72.554688 171.003906 65.265625 165.980469 58.925781 C 161.949219 53.847656 154.921875 47.800781 144.332031 47.800781 C 143.648438 47.800781 142.519531 47.878906 142.324219 48.402344 Z"/></g></g></svg>
